<svg width="24" height="23" viewBox="0 0 24 23" fill="none" xmlns="http://www.w3.org/2000/svg">
<g id="youtube">
<g id="Icon">
<path d="M21.0377 6.9443C20.9353 6.53485 20.7265 6.15969 20.4327 5.85672C20.1388 5.55375 19.7701 5.33371 19.364 5.2188C17.8801 4.85645 11.9444 4.85645 11.9444 4.85645C11.9444 4.85645 6.00864 4.85645 4.52471 5.25331C4.11856 5.36822 3.74994 5.58826 3.45606 5.89123C3.16218 6.1942 2.95346 6.56936 2.85097 6.97881C2.57939 8.48479 2.44655 10.0125 2.45411 11.5428C2.44443 13.0845 2.57728 14.6239 2.85097 16.1412C2.96396 16.5379 3.17736 16.8988 3.47055 17.189C3.76374 17.4792 4.12682 17.6888 4.52471 17.7977C6.00864 18.1946 11.9444 18.1946 11.9444 18.1946C11.9444 18.1946 17.8801 18.1946 19.364 17.7977C19.7701 17.6828 20.1388 17.4627 20.4327 17.1598C20.7265 16.8568 20.9353 16.4816 21.0377 16.0722C21.3072 14.5776 21.4401 13.0615 21.4346 11.5428C21.4443 10.001 21.3114 8.46162 21.0377 6.9443Z" stroke="#E78140" stroke-width="1.70833" stroke-linecap="round" stroke-linejoin="round"/>
<path d="M9.80894 9.09438C9.80894 8.6414 9.80894 8.41491 9.9036 8.28847C9.98609 8.17828 10.1124 8.10934 10.2497 8.09953C10.4072 8.08828 10.5977 8.21075 10.9788 8.4557L14.7208 10.8613C15.0514 11.0738 15.2168 11.1801 15.2739 11.3153C15.3238 11.4333 15.3238 11.5666 15.2739 11.6847C15.2168 11.8198 15.0514 11.9261 14.7208 12.1386L10.9788 14.5442C10.5977 14.7892 10.4072 14.9117 10.2497 14.9004C10.1124 14.8906 9.98609 14.8217 9.9036 14.7115C9.80894 14.585 9.80894 14.3585 9.80894 13.9056V9.09438Z" stroke="#E78140" stroke-width="1.70833" stroke-linecap="round" stroke-linejoin="round"/>
</g>
</g>
</svg>
