<svg width="24" height="23" viewBox="0 0 24 23" fill="none" xmlns="http://www.w3.org/2000/svg">
<g id="instagram">
<g id="instagram_2">
<path d="M16.7047 7.58496C16.7047 8.17464 16.2267 8.65267 15.637 8.65267C15.0473 8.65267 14.5693 8.17464 14.5693 7.58496C14.5693 6.99528 15.0473 6.51725 15.637 6.51725C16.2267 6.51725 16.7047 6.99528 16.7047 7.58496Z" fill="#E78140"/>
<path fill-rule="evenodd" clip-rule="evenodd" d="M11.7221 15.0589C13.6877 15.0589 15.2811 13.4655 15.2811 11.4999C15.2811 9.53429 13.6877 7.94086 11.7221 7.94086C9.75646 7.94086 8.16303 9.53429 8.16303 11.4999C8.16303 13.4655 9.75646 15.0589 11.7221 15.0589ZM11.7221 13.6353C12.9014 13.6353 13.8575 12.6792 13.8575 11.4999C13.8575 10.3205 12.9014 9.36447 11.7221 9.36447C10.5427 9.36447 9.58664 10.3205 9.58664 11.4999C9.58664 12.6792 10.5427 13.6353 11.7221 13.6353Z" fill="#E78140"/>
<path fill-rule="evenodd" clip-rule="evenodd" d="M4.604 11.2152C4.604 8.82328 4.604 7.62733 5.0695 6.71375C5.47896 5.91014 6.13231 5.25679 6.93592 4.84733C7.8495 4.38184 9.04545 4.38184 11.4373 4.38184H12.0068C14.3987 4.38184 15.5946 4.38184 16.5082 4.84733C17.3118 5.25679 17.9652 5.91014 18.3746 6.71375C18.8401 7.62733 18.8401 8.82328 18.8401 11.2152V11.7846C18.8401 14.1765 18.8401 15.3724 18.3746 16.286C17.9652 17.0896 17.3118 17.743 16.5082 18.1525C15.5946 18.6179 14.3987 18.6179 12.0068 18.6179H11.4373C9.04545 18.6179 7.8495 18.6179 6.93592 18.1525C6.13231 17.743 5.47896 17.0896 5.0695 16.286C4.604 15.3724 4.604 14.1765 4.604 11.7846V11.2152ZM11.4373 5.80545H12.0068C13.2262 5.80545 14.0552 5.80655 14.6959 5.85891C15.3201 5.9099 15.6392 6.00233 15.8619 6.11578C16.3976 6.38875 16.8332 6.82432 17.1062 7.36006C17.2196 7.58271 17.3121 7.90189 17.363 8.52602C17.4154 9.16677 17.4165 9.99573 17.4165 11.2152V11.7846C17.4165 13.004 17.4154 13.833 17.363 14.4738C17.3121 15.0979 17.2196 15.4171 17.1062 15.6397C16.8332 16.1755 16.3976 16.611 15.8619 16.884C15.6392 16.9975 15.3201 17.0899 14.6959 17.1409C14.0552 17.1932 13.2262 17.1943 12.0068 17.1943H11.4373C10.2179 17.1943 9.38894 17.1932 8.74819 17.1409C8.12406 17.0899 7.80488 16.9975 7.58223 16.884C7.04649 16.611 6.61092 16.1755 6.33794 15.6397C6.2245 15.4171 6.13207 15.0979 6.08107 14.4738C6.02872 13.833 6.02761 13.004 6.02761 11.7846V11.2152C6.02761 9.99573 6.02872 9.16677 6.08107 8.52602C6.13207 7.90189 6.2245 7.58271 6.33794 7.36006C6.61092 6.82432 7.04649 6.38875 7.58223 6.11578C7.80488 6.00233 8.12406 5.9099 8.74819 5.85891C9.38894 5.80655 10.2179 5.80545 11.4373 5.80545Z" fill="#E78140"/>
</g>
</g>
</svg>
