<svg width="24" height="23" viewBox="0 0 24 23" fill="none" xmlns="http://www.w3.org/2000/svg">
<g id="spotify">
<rect x="0.777832" y="0.111328" width="22.7778" height="22.7778" rx="11.3889" fill="#E78140"/>
<path id="spotify_2" d="M16.6969 15.5028C16.5267 15.7729 16.1635 15.8486 15.8797 15.6865C13.6437 14.3898 10.8402 14.098 7.52594 14.8112C7.20814 14.876 6.89033 14.6923 6.82223 14.3898C6.75413 14.0872 6.94708 13.7847 7.26489 13.7198C10.8856 12.931 13.9956 13.266 16.4926 14.7248C16.7764 14.8868 16.8672 15.2326 16.6969 15.5028ZM17.8546 13.0391C17.639 13.374 17.185 13.4713 16.8331 13.2768C14.2793 11.7748 10.3862 11.3425 7.36704 12.2178C6.96978 12.3259 6.56117 12.1206 6.44767 11.7532C6.33417 11.375 6.54982 10.9859 6.94708 10.8779C10.3975 9.88376 14.6879 10.3592 17.6276 12.0773C17.9568 12.2718 18.0703 12.7041 17.8546 13.0391ZM17.9568 10.4673C14.8922 8.73834 9.84139 8.57625 6.91303 9.41911C6.44767 9.55958 5.94826 9.31105 5.80071 8.8572C5.65316 8.41417 5.92556 7.93871 6.39092 7.79823C9.75059 6.82571 15.3349 7.02022 18.8535 9.00849C19.2734 9.24621 19.4096 9.76489 19.1599 10.1647C18.9216 10.5753 18.3768 10.7158 17.9568 10.4673Z" fill="white"/>
</g>
</svg>
